<svg width="343" height="347" viewBox="0 0 343 347" fill="none" xmlns="http://www.w3.org/2000/svg">
<path d="M171.5 0L179.294 13.5L163.706 13.5L171.5 0Z" fill="white"/>
<path d="M0.903409 191.5V190.733L3.78409 187.58C4.12216 187.21 4.40057 186.889 4.61932 186.616C4.83807 186.341 5 186.082 5.10511 185.841C5.21307 185.597 5.26705 185.341 5.26705 185.074C5.26705 184.767 5.19318 184.501 5.04545 184.277C4.90057 184.053 4.7017 183.879 4.44886 183.757C4.19602 183.635 3.91193 183.574 3.59659 183.574C3.26136 183.574 2.96875 183.643 2.71875 183.783C2.47159 183.919 2.27983 184.111 2.14347 184.358C2.00994 184.605 1.94318 184.895 1.94318 185.227H0.9375C0.9375 184.716 1.0554 184.267 1.29119 183.881C1.52699 183.494 1.84801 183.193 2.25426 182.977C2.66335 182.761 3.12216 182.653 3.63068 182.653C4.14205 182.653 4.59517 182.761 4.99006 182.977C5.38494 183.193 5.6946 183.484 5.91903 183.851C6.14347 184.217 6.25568 184.625 6.25568 185.074C6.25568 185.395 6.19744 185.709 6.08097 186.016C5.96733 186.32 5.76847 186.659 5.48438 187.034C5.20312 187.406 4.8125 187.861 4.3125 188.398L2.35227 190.494V190.562H6.40909V191.5H0.903409ZM8.44176 191.5L12.3452 183.778V183.71H7.84517V182.773H13.4361V183.761L9.54972 191.5H8.44176ZM17.6836 191.619C17.0415 191.619 16.4947 191.445 16.043 191.095C15.5913 190.743 15.2461 190.233 15.0075 189.565C14.7688 188.895 14.6495 188.085 14.6495 187.136C14.6495 186.193 14.7688 185.388 15.0075 184.72C15.2489 184.05 15.5955 183.538 16.0472 183.186C16.5018 182.831 17.0472 182.653 17.6836 182.653C18.32 182.653 18.864 182.831 19.3157 183.186C19.7702 183.538 20.1168 184.05 20.3555 184.72C20.5969 185.388 20.7177 186.193 20.7177 187.136C20.7177 188.085 20.5984 188.895 20.3597 189.565C20.1211 190.233 19.7759 190.743 19.3242 191.095C18.8725 191.445 18.3256 191.619 17.6836 191.619ZM17.6836 190.682C18.32 190.682 18.8143 190.375 19.1665 189.761C19.5188 189.148 19.695 188.273 19.695 187.136C19.695 186.381 19.614 185.737 19.4521 185.206C19.293 184.675 19.0629 184.27 18.7617 183.991C18.4634 183.713 18.104 183.574 17.6836 183.574C17.0529 183.574 16.56 183.885 16.2049 184.507C15.8498 185.126 15.6722 186.003 15.6722 187.136C15.6722 187.892 15.7518 188.534 15.9109 189.062C16.07 189.591 16.2987 189.993 16.5969 190.268C16.8981 190.544 17.2603 190.682 17.6836 190.682ZM24.1609 186.625C23.8001 186.625 23.4705 186.537 23.1722 186.361C22.8768 186.185 22.641 185.949 22.4648 185.653C22.2887 185.355 22.2006 185.026 22.2006 184.665C22.2006 184.304 22.2887 183.976 22.4648 183.68C22.641 183.382 22.8768 183.145 23.1722 182.969C23.4705 182.793 23.8001 182.705 24.1609 182.705C24.5217 182.705 24.8498 182.793 25.1452 182.969C25.4435 183.145 25.6808 183.382 25.8569 183.68C26.033 183.976 26.1211 184.304 26.1211 184.665C26.1211 185.026 26.033 185.355 25.8569 185.653C25.6808 185.949 25.4435 186.185 25.1452 186.361C24.8498 186.537 24.5217 186.625 24.1609 186.625ZM24.1609 185.773C24.3654 185.773 24.5515 185.723 24.7191 185.624C24.8867 185.524 25.0202 185.391 25.1197 185.223C25.2191 185.055 25.2688 184.869 25.2688 184.665C25.2688 184.46 25.2191 184.274 25.1197 184.107C25.0202 183.939 24.8867 183.805 24.7191 183.706C24.5515 183.607 24.3654 183.557 24.1609 183.557C23.9563 183.557 23.7702 183.607 23.6026 183.706C23.435 183.805 23.3015 183.939 23.2021 184.107C23.1026 184.274 23.0529 184.46 23.0529 184.665C23.0529 184.869 23.1026 185.055 23.2021 185.223C23.3015 185.391 23.435 185.524 23.6026 185.624C23.7702 185.723 23.9563 185.773 24.1609 185.773Z" fill="white"/>
<path d="M168.75 39.1193C168.108 39.1193 167.561 38.9446 167.109 38.5952C166.658 38.2429 166.313 37.733 166.074 37.0653C165.835 36.3949 165.716 35.5852 165.716 34.6364C165.716 33.6932 165.835 32.8878 166.074 32.2202C166.315 31.5497 166.662 31.0384 167.114 30.6861C167.568 30.331 168.114 30.1534 168.75 30.1534C169.386 30.1534 169.93 30.331 170.382 30.6861C170.837 31.0384 171.183 31.5497 171.422 32.2202C171.663 32.8878 171.784 33.6932 171.784 34.6364C171.784 35.5852 171.665 36.3949 171.426 37.0653C171.188 37.733 170.842 38.2429 170.391 38.5952C169.939 38.9446 169.392 39.1193 168.75 39.1193ZM168.75 38.1818C169.386 38.1818 169.881 37.875 170.233 37.2614C170.585 36.6477 170.761 35.7727 170.761 34.6364C170.761 33.8807 170.68 33.2372 170.518 32.706C170.359 32.1747 170.129 31.7699 169.828 31.4915C169.53 31.2131 169.17 31.0739 168.75 31.0739C168.119 31.0739 167.626 31.3849 167.271 32.0071C166.916 32.6264 166.739 33.5028 166.739 34.6364C166.739 35.392 166.818 36.0341 166.977 36.5625C167.136 37.0909 167.365 37.4929 167.663 37.7685C167.964 38.044 168.327 38.1818 168.75 38.1818ZM175.227 34.125C174.866 34.125 174.537 34.0369 174.239 33.8608C173.943 33.6847 173.707 33.4489 173.531 33.1534C173.355 32.8551 173.267 32.5256 173.267 32.1648C173.267 31.804 173.355 31.4759 173.531 31.1804C173.707 30.8821 173.943 30.6449 174.239 30.4688C174.537 30.2926 174.866 30.2045 175.227 30.2045C175.588 30.2045 175.916 30.2926 176.212 30.4688C176.51 30.6449 176.747 30.8821 176.923 31.1804C177.099 31.4759 177.188 31.804 177.188 32.1648C177.188 32.5256 177.099 32.8551 176.923 33.1534C176.747 33.4489 176.51 33.6847 176.212 33.8608C175.916 34.0369 175.588 34.125 175.227 34.125ZM175.227 33.2727C175.432 33.2727 175.618 33.223 175.786 33.1236C175.953 33.0241 176.087 32.8906 176.186 32.723C176.286 32.5554 176.335 32.3693 176.335 32.1648C176.335 31.9602 176.286 31.7741 176.186 31.6065C176.087 31.4389 175.953 31.3054 175.786 31.206C175.618 31.1065 175.432 31.0568 175.227 31.0568C175.023 31.0568 174.837 31.1065 174.669 31.206C174.501 31.3054 174.368 31.4389 174.268 31.6065C174.169 31.7741 174.119 31.9602 174.119 32.1648C174.119 32.3693 174.169 32.5554 174.268 32.723C174.368 32.8906 174.501 33.0241 174.669 33.1236C174.837 33.223 175.023 33.2727 175.227 33.2727Z" fill="white"/>
<rect x="37.5" y="53" width="269" height="269" rx="134.5" stroke="white" stroke-dasharray="2 2"/>
<g clip-path="url(#clip0_3_211)">
<rect x="47.5" y="62" width="250" height="250" rx="125" fill="white"/>
<path d="M176.058 85.2727V94H174.464L170.668 88.5071H170.604V94H168.759V85.2727H170.378L174.145 90.7614H174.222V85.2727H176.058Z" fill="black"/>
<path d="M70.223 191.5L67.7259 182.773H69.7415L71.1861 188.837H71.2585L72.8523 182.773H74.5781L76.1676 188.849H76.2443L77.6889 182.773H79.7045L77.2074 191.5H75.4091L73.7472 185.794H73.679L72.0213 191.5H70.223Z" fill="black"/>
<path d="M270.259 191.5V182.773H276.139V184.294H272.104V186.374L275.837 186.374V187.895H272.104V189.979H276.156V191.5H270.259Z" fill="black"/>
<path d="M173.993 282.783C173.959 282.439 173.813 282.172 173.554 281.982C173.295 281.791 172.945 281.696 172.501 281.696C172.2 281.696 171.946 281.739 171.739 281.824C171.531 281.906 171.372 282.021 171.261 282.169C171.153 282.317 171.099 282.484 171.099 282.672C171.094 282.828 171.126 282.964 171.197 283.081C171.271 283.197 171.372 283.298 171.5 283.384C171.628 283.466 171.776 283.538 171.943 283.601C172.111 283.661 172.29 283.712 172.48 283.754L173.264 283.942C173.645 284.027 173.994 284.141 174.313 284.283C174.631 284.425 174.906 284.599 175.139 284.807C175.372 285.014 175.553 285.259 175.68 285.54C175.811 285.821 175.878 286.143 175.881 286.507C175.878 287.041 175.741 287.504 175.472 287.896C175.205 288.286 174.818 288.588 174.313 288.804C173.81 289.017 173.203 289.124 172.493 289.124C171.788 289.124 171.175 289.016 170.652 288.8C170.132 288.584 169.726 288.264 169.433 287.841C169.143 287.415 168.991 286.888 168.977 286.26H170.763C170.783 286.553 170.866 286.797 171.014 286.993C171.165 287.186 171.365 287.332 171.615 287.432C171.868 287.528 172.153 287.577 172.472 287.577C172.784 287.577 173.055 287.531 173.286 287.44C173.518 287.349 173.699 287.223 173.827 287.061C173.955 286.899 174.018 286.713 174.018 286.503C174.018 286.307 173.96 286.142 173.844 286.009C173.73 285.875 173.563 285.761 173.341 285.668C173.122 285.574 172.854 285.489 172.536 285.412L171.585 285.173C170.849 284.994 170.268 284.714 169.842 284.334C169.416 283.953 169.205 283.44 169.207 282.795C169.205 282.267 169.345 281.805 169.629 281.411C169.916 281.016 170.31 280.707 170.81 280.486C171.31 280.264 171.878 280.153 172.514 280.153C173.162 280.153 173.727 280.264 174.21 280.486C174.696 280.707 175.074 281.016 175.344 281.411C175.614 281.805 175.753 282.263 175.761 282.783H173.993Z" fill="black"/>
</g>
<line x1="251.196" y1="104.204" x2="270.995" y2="84.4046" stroke="#DDDDDD" stroke-width="5"/>
<path d="M162.972 335.773V344.5H161.915V336.881H161.864L159.733 338.295V337.222L161.915 335.773H162.972ZM168.277 344.619C167.692 344.619 167.175 344.516 166.726 344.308C166.28 344.098 165.932 343.81 165.682 343.443C165.432 343.074 165.308 342.653 165.311 342.182C165.308 341.812 165.381 341.472 165.528 341.159C165.676 340.844 165.878 340.581 166.134 340.371C166.392 340.158 166.68 340.023 166.999 339.966V339.915C166.581 339.807 166.249 339.572 166.001 339.212C165.754 338.848 165.632 338.435 165.635 337.972C165.632 337.528 165.744 337.132 165.972 336.783C166.199 336.433 166.511 336.158 166.909 335.956C167.31 335.754 167.766 335.653 168.277 335.653C168.783 335.653 169.234 335.754 169.632 335.956C170.03 336.158 170.342 336.433 170.57 336.783C170.8 337.132 170.916 337.528 170.919 337.972C170.916 338.435 170.79 338.848 170.54 339.212C170.293 339.572 169.964 339.807 169.555 339.915V339.966C169.871 340.023 170.155 340.158 170.408 340.371C170.661 340.581 170.862 340.844 171.013 341.159C171.163 341.472 171.24 341.812 171.243 342.182C171.24 342.653 171.112 343.074 170.859 343.443C170.609 343.81 170.261 344.098 169.815 344.308C169.372 344.516 168.859 344.619 168.277 344.619ZM168.277 343.682C168.672 343.682 169.013 343.618 169.3 343.49C169.587 343.362 169.808 343.182 169.964 342.949C170.121 342.716 170.2 342.443 170.203 342.131C170.2 341.801 170.115 341.51 169.947 341.257C169.78 341.004 169.551 340.805 169.261 340.661C168.974 340.516 168.646 340.443 168.277 340.443C167.905 340.443 167.572 340.516 167.28 340.661C166.99 340.805 166.761 341.004 166.594 341.257C166.429 341.51 166.348 341.801 166.351 342.131C166.348 342.443 166.423 342.716 166.577 342.949C166.733 343.182 166.956 343.362 167.246 343.49C167.536 343.618 167.879 343.682 168.277 343.682ZM168.277 339.54C168.589 339.54 168.866 339.477 169.108 339.352C169.352 339.227 169.544 339.053 169.683 338.828C169.822 338.604 169.893 338.341 169.896 338.04C169.893 337.744 169.824 337.487 169.688 337.268C169.551 337.047 169.362 336.876 169.121 336.757C168.879 336.635 168.598 336.574 168.277 336.574C167.95 336.574 167.665 336.635 167.42 336.757C167.176 336.876 166.987 337.047 166.854 337.268C166.72 337.487 166.655 337.744 166.658 338.04C166.655 338.341 166.722 338.604 166.858 338.828C166.997 339.053 167.189 339.227 167.433 339.352C167.678 339.477 167.959 339.54 168.277 339.54ZM175.723 344.619C175.081 344.619 174.534 344.445 174.082 344.095C173.63 343.743 173.285 343.233 173.047 342.565C172.808 341.895 172.689 341.085 172.689 340.136C172.689 339.193 172.808 338.388 173.047 337.72C173.288 337.05 173.635 336.538 174.086 336.186C174.541 335.831 175.086 335.653 175.723 335.653C176.359 335.653 176.903 335.831 177.355 336.186C177.809 336.538 178.156 337.05 178.395 337.72C178.636 338.388 178.757 339.193 178.757 340.136C178.757 341.085 178.637 341.895 178.399 342.565C178.16 343.233 177.815 343.743 177.363 344.095C176.912 344.445 176.365 344.619 175.723 344.619ZM175.723 343.682C176.359 343.682 176.853 343.375 177.206 342.761C177.558 342.148 177.734 341.273 177.734 340.136C177.734 339.381 177.653 338.737 177.491 338.206C177.332 337.675 177.102 337.27 176.801 336.991C176.502 336.713 176.143 336.574 175.723 336.574C175.092 336.574 174.599 336.885 174.244 337.507C173.889 338.126 173.711 339.003 173.711 340.136C173.711 340.892 173.791 341.534 173.95 342.062C174.109 342.591 174.338 342.993 174.636 343.268C174.937 343.544 175.299 343.682 175.723 343.682ZM182.2 339.625C181.839 339.625 181.51 339.537 181.211 339.361C180.916 339.185 180.68 338.949 180.504 338.653C180.328 338.355 180.24 338.026 180.24 337.665C180.24 337.304 180.328 336.976 180.504 336.68C180.68 336.382 180.916 336.145 181.211 335.969C181.51 335.793 181.839 335.705 182.2 335.705C182.561 335.705 182.889 335.793 183.184 335.969C183.483 336.145 183.72 336.382 183.896 336.68C184.072 336.976 184.16 337.304 184.16 337.665C184.16 338.026 184.072 338.355 183.896 338.653C183.72 338.949 183.483 339.185 183.184 339.361C182.889 339.537 182.561 339.625 182.2 339.625ZM182.2 338.773C182.404 338.773 182.591 338.723 182.758 338.624C182.926 338.524 183.059 338.391 183.159 338.223C183.258 338.055 183.308 337.869 183.308 337.665C183.308 337.46 183.258 337.274 183.159 337.107C183.059 336.939 182.926 336.805 182.758 336.706C182.591 336.607 182.404 336.557 182.2 336.557C181.995 336.557 181.809 336.607 181.642 336.706C181.474 336.805 181.341 336.939 181.241 337.107C181.142 337.274 181.092 337.46 181.092 337.665C181.092 337.869 181.142 338.055 181.241 338.223C181.341 338.391 181.474 338.524 181.642 338.624C181.809 338.723 181.995 338.773 182.2 338.773Z" fill="white"/>
<path d="M320.682 182.653C321.04 182.656 321.398 182.724 321.756 182.858C322.114 182.991 322.44 183.213 322.736 183.523C323.031 183.83 323.268 184.249 323.447 184.78C323.626 185.311 323.716 185.977 323.716 186.778C323.716 187.554 323.642 188.243 323.494 188.845C323.349 189.445 323.139 189.95 322.864 190.362C322.591 190.774 322.259 191.087 321.866 191.3C321.477 191.513 321.037 191.619 320.545 191.619C320.057 191.619 319.621 191.523 319.237 191.33C318.857 191.134 318.544 190.862 318.3 190.516C318.058 190.166 317.903 189.761 317.835 189.301H318.875C318.969 189.702 319.155 190.033 319.433 190.294C319.714 190.553 320.085 190.682 320.545 190.682C321.219 190.682 321.75 190.388 322.139 189.8C322.531 189.212 322.727 188.381 322.727 187.307H322.659C322.5 187.545 322.311 187.751 322.092 187.925C321.874 188.098 321.631 188.232 321.364 188.325C321.097 188.419 320.813 188.466 320.511 188.466C320.011 188.466 319.553 188.342 319.135 188.095C318.72 187.845 318.388 187.503 318.138 187.068C317.891 186.631 317.767 186.131 317.767 185.568C317.767 185.034 317.886 184.545 318.125 184.102C318.366 183.656 318.705 183.301 319.139 183.037C319.577 182.773 320.091 182.645 320.682 182.653ZM320.682 183.591C320.324 183.591 320.001 183.68 319.714 183.859C319.43 184.036 319.205 184.274 319.037 184.575C318.872 184.874 318.79 185.205 318.79 185.568C318.79 185.932 318.869 186.263 319.028 186.561C319.19 186.857 319.411 187.092 319.689 187.268C319.97 187.442 320.29 187.528 320.648 187.528C320.918 187.528 321.169 187.476 321.402 187.371C321.635 187.263 321.838 187.116 322.011 186.932C322.188 186.744 322.325 186.533 322.425 186.297C322.524 186.058 322.574 185.81 322.574 185.551C322.574 185.21 322.491 184.891 322.327 184.592C322.165 184.294 321.94 184.053 321.653 183.868C321.369 183.683 321.045 183.591 320.682 183.591ZM328.238 191.619C327.596 191.619 327.049 191.445 326.598 191.095C326.146 190.743 325.801 190.233 325.562 189.565C325.324 188.895 325.204 188.085 325.204 187.136C325.204 186.193 325.324 185.388 325.562 184.72C325.804 184.05 326.15 183.538 326.602 183.186C327.056 182.831 327.602 182.653 328.238 182.653C328.875 182.653 329.419 182.831 329.87 183.186C330.325 183.538 330.672 184.05 330.91 184.72C331.152 185.388 331.272 186.193 331.272 187.136C331.272 188.085 331.153 188.895 330.914 189.565C330.676 190.233 330.331 190.743 329.879 191.095C329.427 191.445 328.88 191.619 328.238 191.619ZM328.238 190.682C328.875 190.682 329.369 190.375 329.721 189.761C330.074 189.148 330.25 188.273 330.25 187.136C330.25 186.381 330.169 185.737 330.007 185.206C329.848 184.675 329.618 184.27 329.316 183.991C329.018 183.713 328.659 183.574 328.238 183.574C327.608 183.574 327.115 183.885 326.76 184.507C326.404 185.126 326.227 186.003 326.227 187.136C326.227 187.892 326.306 188.534 326.466 189.062C326.625 189.591 326.853 189.993 327.152 190.268C327.453 190.544 327.815 190.682 328.238 190.682ZM334.716 186.625C334.355 186.625 334.025 186.537 333.727 186.361C333.431 186.185 333.196 185.949 333.02 185.653C332.843 185.355 332.755 185.026 332.755 184.665C332.755 184.304 332.843 183.976 333.02 183.68C333.196 183.382 333.431 183.145 333.727 182.969C334.025 182.793 334.355 182.705 334.716 182.705C335.076 182.705 335.404 182.793 335.7 182.969C335.998 183.145 336.235 183.382 336.412 183.68C336.588 183.976 336.676 184.304 336.676 184.665C336.676 185.026 336.588 185.355 336.412 185.653C336.235 185.949 335.998 186.185 335.7 186.361C335.404 186.537 335.076 186.625 334.716 186.625ZM334.716 185.773C334.92 185.773 335.106 185.723 335.274 185.624C335.441 185.524 335.575 185.391 335.674 185.223C335.774 185.055 335.824 184.869 335.824 184.665C335.824 184.46 335.774 184.274 335.674 184.107C335.575 183.939 335.441 183.805 335.274 183.706C335.106 183.607 334.92 183.557 334.716 183.557C334.511 183.557 334.325 183.607 334.157 183.706C333.99 183.805 333.856 183.939 333.757 184.107C333.657 184.274 333.608 184.46 333.608 184.665C333.608 184.869 333.657 185.055 333.757 185.223C333.856 185.391 333.99 185.524 334.157 185.624C334.325 185.723 334.511 185.773 334.716 185.773Z" fill="white"/>
<defs>
<clipPath id="clip0_3_211">
<rect x="47.5" y="62" width="250" height="250" rx="125" fill="white"/>
</clipPath>
</defs>
</svg>
